<?xml version="1.0" encoding="UTF-8" standalone="no"?>
<svg
   width="400"
   height="400"
   viewBox="0 0 400 400"
   fill="none"
   version="1.1"
   id="svg6"
   inkscape:version="1.3 (0e150ed, 2023-07-21)"
   xmlns="http://www.w3.org/2000/svg"
   xmlns:svg="http://www.w3.org/2000/svg">
  <defs
     id="defs6" />
  <sodipodi:namedview
     id="namedview6"
     pagecolor="#ffffff"
     bordercolor="#000000"
     borderopacity="0.25"
     inkscape:showpageshadow="2"
     inkscape:pageopacity="0.0"
     inkscape:pagecheckerboard="0"
     inkscape:deskcolor="#d1d1d1"
     inkscape:zoom="2.6687159"
     inkscape:cx="192.9767"
     inkscape:cy="210.40081"
     inkscape:window-width="1928"
     inkscape:window-height="1314"
     inkscape:window-x="50"
     inkscape:window-y="25"
     inkscape:window-maximized="0"
     inkscape:current-layer="svg6" />
  <path
     d="M 10.504843,316.06129 V 85.762754 L 201.01233,0.84016516 388.51969,85.762754 V 316.06129 l -187.50736,83.48323 z"
     fill="#647CC6"
     id="path1"
     style="fill:#647acb;fill-opacity:1;stroke-width:0.979598" />
  <path
     d="m 113.3226,249.19428 c 3.48913,4.1604 4.08216,10.31552 1.82906,17.14472 -2.24608,6.80659 -7.27028,14.06028 -14.59646,20.06997 -7.326396,6.0097 -15.459416,9.55007 -22.632097,10.47373 -7.193983,0.92661 -13.190019,-0.78609 -16.676155,-4.94453 -3.488838,-4.1614 -4.08246,-10.31553 -1.828772,-17.14473 2.246288,-6.80659 7.270085,-14.06028 14.596273,-20.06997 7.326388,-6.00969 15.459408,-9.55006 22.632089,-10.47372 7.193982,-0.92661 13.189922,0.78609 16.676062,4.94453 z m -4.58348,3.74672 c 2.7434,3.27114 3.11342,8.39647 1.10034,14.20374 -1.99748,5.76011 -6.25935,11.88477 -12.212183,16.7674 -5.958034,4.88755 -12.562094,7.75777 -18.368822,8.50554 -5.828029,0.75072 -10.621217,-0.6446 -13.391226,-3.94815 -2.772808,-3.30651 -3.272728,-8.23337 -1.446557,-13.76747 1.818972,-5.5115 5.894132,-11.40229 11.851966,-16.28984 5.966734,-4.89442 12.764402,-7.99949 18.770337,-8.96934 6.048935,-0.97573 10.965515,0.24074 13.696145,3.49812 z m -9.189168,33.23411 c 6.330338,-5.19314 10.936528,-11.75604 13.129618,-18.08017 2.17608,-6.27697 2.06009,-12.63353 -1.62507,-17.02877 -3.69715,-4.41 -9.93189,-5.59208 -16.497944,-4.53184 -6.60906,1.06712 -13.890345,4.43358 -20.206694,9.61492 -6.325248,5.1892 -10.764822,11.52807 -12.783002,17.64389 -2.010879,6.09321 -1.670165,12.19134 1.984878,16.55122 3.657844,4.36282 9.66268,5.82398 16.096532,4.99563 6.455154,-0.83129 13.576734,-3.97665 19.901682,-9.16488 z"
     stroke="#e1e8f8"
     stroke-width="2.97388"
     id="path2" />
  <path
     d="m 111.0735,249.06556 10.33641,-72.26665 6.48426,0.89517 c -3.22313,22.53536 1.18804,25.15207 3.79115,27.62434 15.50161,12.28371 16.38864,24.50354 15.2756,31.90462 l -6.48426,-0.89614 c 1.86108,-15.71796 -10.38441,-26.26244 -16.73865,-29.56993 l -7.4023,51.75253 z"
     fill="#e1e8f8"
     stroke="#e1e8f8"
     stroke-width="3.46952"
     id="path3" />
  <path
     d="m 309.70224,247.82664 c 3.48915,4.16041 4.08217,10.31553 1.82908,17.14472 -2.24708,6.8066 -7.27028,14.06028 -14.59657,20.06997 -7.32629,6.00969 -15.4596,9.55007 -22.63189,10.47373 -7.19428,0.92661 -13.19052,-0.7861 -16.67665,-4.94453 -3.48915,-4.16139 -4.08216,-10.31553 -1.82908,-17.14472 2.24709,-6.80659 7.27028,-14.06028 14.59658,-20.06998 7.32628,-6.00969 15.45961,-9.55006 22.63188,-10.47373 7.19428,-0.9266 13.19052,0.7861 16.67665,4.94454 z m -4.58418,3.74673 c 2.74312,3.27113 3.11413,8.39646 1.10105,14.20374 -1.99807,5.7601 -6.25924,11.88476 -12.21248,16.76739 -5.95823,4.88755 -12.56249,7.75777 -18.36872,8.50554 -5.82823,0.75073 -10.62142,-0.64459 -13.39152,-3.94815 -2.77212,-3.30651 -3.27214,-8.23336 -1.44606,-13.76747 1.81907,-5.5115 5.89423,-11.40229 11.85146,-16.28984 5.96724,-4.89442 12.76451,-7.99949 18.77074,-8.96933 6.04924,-0.97575 10.96543,0.24073 13.69553,3.49812 z m -9.18836,33.2341 c 6.33026,-5.19313 10.93644,-11.75604 13.12853,-18.08017 2.17708,-6.27696 2.06007,-12.63352 -1.62407,-17.02877 -3.69714,-4.40999 -9.93239,-5.59208 -16.49865,-4.53184 -6.60826,1.06713 -13.88955,4.43358 -20.20579,9.61493 -6.32525,5.1892 -10.76543,11.52807 -12.7835,17.64388 -2.01108,6.09322 -1.67007,12.19134 1.98507,16.55122 3.65814,4.36283 9.66238,5.82398 16.09664,4.99563 6.45525,-0.83129 13.57653,-3.97666 19.90177,-9.16488 z"
     stroke="#e1e8f8"
     stroke-width="2.97388"
     id="path4" />
  <path
     d="m 307.45216,247.69792 10.33741,-72.26665 6.48425,0.89517 c -3.22312,22.53537 1.18805,25.15208 3.79115,27.62434 15.50161,12.28371 16.38764,24.50355 15.2756,31.90463 l -6.48525,-0.89615 c 1.86107,-15.71796 -10.38341,-26.26243 -16.73866,-29.56992 l -7.40229,51.75252 z"
     fill="#e1e8f8"
     stroke="#e1e8f8"
     stroke-width="3.46952"
     id="path5" />
  <path
     d="M 10.461883,86.892546 V 314.73639 L 201.26751,397.19897 M 10.461883,86.892546 201.26751,168.8781 M 10.461883,86.892546 105.86469,44.946377 M 201.26751,397.19897 390.56274,314.73639 V 86.892546 M 201.26751,397.19897 V 168.8781 M 390.56274,86.892546 201.26751,3.0002091 105.86469,44.946377 m 284.69805,41.946169 -94.64712,40.992674 m -94.64811,40.99288 94.64811,-40.99288 M 105.86469,44.946377 295.91562,127.88522"
     stroke="#e1e8f8"
     stroke-width="4.90905"
     stroke-linecap="round"
     id="path6" />
</svg>
